<?xml version="1.0" standalone="no"?>
<!DOCTYPE svg PUBLIC "-//W3C//DTD SVG 20010904//EN"
 "http://www.w3.org/TR/2001/REC-SVG-20010904/DTD/svg10.dtd">
<svg version="1.0" xmlns="http://www.w3.org/2000/svg"
 width="1314.000000pt" height="800.000000pt" viewBox="0 0 1314.000000 800.000000"
 preserveAspectRatio="xMidYMid meet">

<g transform="translate(0.000000,800.000000) scale(0.100000,-0.100000)"
fill="#FFFFFF" stroke="none">
<path d="M6918 7589 c-25 -6 -171 -84 -338 -179 -36 -20 -171 -95 -300 -165
-129 -71 -318 -175 -420 -230 l-185 -102 -27 -64 c-15 -35 -58 -151 -95 -258
-37 -106 -73 -195 -81 -198 -33 -13 -32 16 3 112 40 110 43 152 16 186 -33 42
-74 32 -207 -51 -65 -40 -290 -180 -499 -310 -365 -228 -539 -336 -800 -497
-66 -41 -128 -82 -137 -91 -10 -10 -38 -62 -63 -117 -46 -103 -66 -128 -85
-109 -8 8 -7 22 4 49 31 74 13 137 -44 150 -17 4 -163 -41 -470 -145 -245 -83
-505 -171 -579 -196 -74 -25 -147 -54 -163 -65 -15 -11 -74 -75 -131 -142
-143 -169 -680 -826 -700 -858 -9 -14 -21 -59 -26 -100 -19 -154 -104 -1307
-98 -1330 4 -14 116 -207 250 -429 134 -223 277 -460 318 -528 84 -141 107
-169 143 -178 54 -13 89 4 187 94 91 84 805 724 878 788 l36 31 74 -55 c50
-37 156 -93 330 -174 141 -66 364 -172 496 -235 520 -250 505 -243 565 -243
66 0 478 45 502 55 32 13 50 55 51 121 1 34 5 60 8 56 4 -4 16 -34 29 -67 12
-33 58 -154 102 -269 l79 -209 -10 -201 c-29 -560 -33 -694 -21 -730 15 -46
44 -66 96 -66 49 0 33 -12 555 399 411 323 442 350 469 402 10 19 53 161 95
315 108 394 157 568 162 574 2 2 3 -38 2 -90 -5 -170 7 -175 303 -125 117 21
222 42 233 48 34 17 708 509 745 544 l35 31 5 161 5 160 295 -210 c162 -115
363 -258 445 -318 203 -146 222 -155 286 -127 13 6 19 -3 29 -38 14 -52 22
-60 150 -151 227 -163 291 -206 324 -220 38 -16 217 -19 413 -6 120 7 143 21
146 88 l1 41 26 -16 c14 -9 54 -36 89 -60 163 -110 183 -105 319 85 50 70 146
202 213 293 67 91 130 183 140 205 10 22 23 80 29 129 9 74 8 97 -5 142 -8 29
-20 56 -25 59 -20 12 -9 31 22 40 39 12 43 18 482 585 338 439 418 543 435
577 6 11 31 113 55 225 259 1178 346 1583 346 1601 -1 47 -53 82 -107 72 -41
-7 -22 19 -414 -560 -420 -618 -443 -652 -528 -738 -84 -87 -288 -253 -634
-517 -126 -95 -237 -184 -247 -197 l-18 -23 -5 27 c-4 23 8 40 79 118 95 103
162 188 176 225 10 26 35 135 138 598 48 217 57 268 49 297 -11 40 -33 55 -83
55 -28 0 -53 -14 -133 -77 -317 -249 -439 -338 -530 -388 -55 -30 -104 -55
-107 -55 -3 0 0 13 5 29 13 36 18 23 -210 520 -94 205 -171 375 -171 378 0 2
11 1 24 -3 14 -3 32 -2 40 3 9 5 83 76 165 157 112 111 151 156 155 179 3 18
15 147 26 287 11 140 23 271 26 291 10 66 -31 129 -83 129 -30 0 -89 -44 -275
-204 -95 -83 -218 -188 -273 -235 -157 -136 -175 -156 -175 -196 0 -19 -3 -35
-7 -35 -5 0 -57 41 -118 90 -114 93 -149 109 -185 90 -12 -6 -23 -10 -25 -8
-2 2 -9 173 -15 381 -6 234 -14 386 -21 401 -7 14 -25 30 -40 37 -43 17 -81
-3 -131 -70 -24 -32 -126 -162 -228 -290 -189 -238 -210 -255 -175 -144 14 45
15 62 6 92 -14 48 -18 51 -186 153 -77 47 -241 147 -365 223 -639 391 -831
507 -857 514 -15 4 -40 4 -55 0z m167 -158 c74 -44 205 -123 292 -177 87 -53
208 -127 268 -164 518 -317 655 -403 655 -413 0 -7 -19 -37 -43 -67 -198 -251
-219 -282 -212 -309 3 -14 22 -79 42 -143 l36 -117 -41 -68 c-57 -97 -480
-734 -504 -760 l-20 -22 -137 122 c-75 67 -276 246 -446 398 -171 151 -388
346 -484 432 -96 86 -180 157 -186 157 -12 0 -225 -96 -628 -282 -143 -66
-260 -118 -262 -116 -4 3 259 778 302 893 23 62 20 60 403 267 168 91 418 229
555 306 138 77 256 141 263 141 8 1 74 -35 147 -78z m1798 -638 c4 -124 7
-336 7 -471 l0 -244 -62 -86 c-74 -103 -150 -194 -234 -283 l-63 -66 -35 101
c-112 325 -186 546 -186 555 0 9 75 106 370 481 63 80 130 166 150 192 19 27
38 48 41 48 3 0 9 -102 12 -227z m1154 -150 c-4 -32 -14 -155 -22 -273 -9
-118 -18 -230 -21 -249 -4 -27 -30 -58 -136 -160 -72 -69 -133 -126 -135 -126
-3 0 -24 33 -47 73 -59 103 -85 133 -176 197 -45 31 -80 61 -78 66 2 6 42 42
89 82 163 137 498 427 504 437 3 6 11 10 17 10 7 0 9 -20 5 -57z m-4617 -27
c0 -6 -56 -165 -200 -566 -93 -261 -504 -1420 -640 -1807 -31 -89 -52 -159
-45 -155 22 13 570 405 643 459 39 29 72 48 72 42 0 -6 -29 -138 -64 -293 -97
-420 -232 -1020 -269 -1189 l-12 -58 -130 113 c-71 63 -213 185 -315 272 -301
258 -421 361 -691 595 l-256 221 -7 177 c-13 359 -18 317 61 493 39 85 132
293 208 463 l137 307 62 37 c33 20 185 114 336 208 151 95 354 221 450 280 96
60 281 176 410 257 220 138 250 155 250 144z m4171 -861 c32 -75 311 -688 353
-777 20 -42 36 -81 36 -86 0 -5 -52 -44 -115 -88 -63 -43 -115 -84 -115 -90 0
-35 153 -413 183 -451 11 -14 105 -81 208 -149 103 -69 191 -130 197 -137 10
-12 21 -116 58 -527 8 -102 20 -191 26 -198 13 -15 77 -57 358 -235 118 -75
224 -142 234 -150 16 -12 19 -25 17 -83 -1 -37 -8 -84 -15 -104 -16 -48 -422
-609 -446 -618 -5 -2 -134 81 -287 184 -430 291 -496 334 -513 335 -36 4 -116
-4 -283 -27 -98 -13 -183 -24 -188 -24 -5 0 -9 9 -9 20 0 11 -25 174 -55 363
-30 188 -57 365 -61 393 l-6 51 63 35 c35 19 120 67 189 107 69 39 153 86 188
102 l62 31 33 -19 c31 -19 249 -188 463 -360 50 -40 94 -73 98 -73 9 0 1 8
-259 293 -302 331 -317 351 -485 657 -35 63 -73 125 -84 138 -11 12 -72 52
-135 89 -267 153 -329 201 -850 661 -83 74 -151 135 -151 137 0 2 30 65 66
140 l67 138 81 -7 82 -6 105 108 c58 59 133 137 167 174 68 75 71 84 137 348
20 80 38 151 40 158 3 7 110 -72 264 -195 235 -189 262 -213 282 -258z m-3031
4 c300 -267 405 -365 417 -389 10 -22 38 -139 93 -390 48 -222 253 -1113 289
-1260 23 -91 41 -173 41 -182 0 -15 -28 -78 -165 -363 -32 -66 -72 -153 -91
-193 l-33 -72 -373 186 c-401 201 -513 254 -533 254 -16 0 -142 -76 -704 -427
-240 -150 -437 -268 -439 -263 -3 7 100 496 198 945 22 99 58 266 81 370 23
105 52 237 65 295 99 449 138 621 164 729 16 69 28 127 26 129 -3 2 -114 -75
-248 -172 -134 -97 -268 -194 -298 -216 -30 -21 -56 -38 -58 -36 -2 2 47 150
108 327 62 178 129 374 150 434 35 102 40 112 76 132 22 12 183 89 359 170
176 81 376 175 445 209 l125 62 70 -67 c39 -36 144 -132 235 -212z m5774 154
c-8 -32 -35 -150 -60 -263 -25 -113 -83 -376 -129 -585 -46 -209 -98 -443
-114 -520 -16 -77 -41 -189 -55 -248 l-26 -108 -135 -177 c-74 -97 -174 -226
-221 -287 -47 -60 -126 -164 -177 -230 -128 -169 -315 -402 -327 -410 -6 -4
-111 60 -235 141 l-223 147 -11 81 c-20 145 -40 333 -47 438 l-7 104 229 174
c463 352 644 503 717 598 45 58 790 1151 808 1184 20 36 26 16 13 -39z m-4082
-233 l36 -111 -120 -227 c-266 -504 -324 -612 -386 -725 -59 -108 -64 -122
-59 -162 7 -47 168 -796 258 -1198 6 -26 9 -50 7 -52 -8 -9 -369 375 -378 402
-14 41 -171 763 -271 1248 -27 132 -52 248 -55 258 -3 9 -2 17 3 17 4 0 75
-59 156 -130 82 -72 152 -130 157 -130 10 0 322 468 491 737 63 100 116 182
119 183 3 0 21 -50 42 -110z m-4622 -54 c0 -3 -45 -100 -100 -217 -55 -116
-139 -295 -187 -398 l-86 -186 1 -80 c1 -44 7 -226 12 -405 13 -411 40 -1438
40 -1507 l0 -52 -132 -120 c-73 -65 -183 -163 -244 -218 -61 -54 -203 -181
-315 -282 -112 -102 -239 -216 -282 -255 -104 -94 -101 -92 -130 -54 -36 49
-598 987 -614 1027 -13 29 -13 57 -4 175 6 78 22 294 36 481 39 531 55 707 67
729 6 12 30 44 52 71 122 147 198 239 346 420 325 396 394 476 420 490 15 8
260 93 546 190 285 96 528 180 539 185 23 10 35 12 35 6z m7169 -556 c-69
-325 -139 -624 -153 -655 -23 -50 -206 -256 -220 -248 -7 5 -90 58 -186 118
l-173 110 -32 70 c-19 39 -45 97 -59 130 -24 56 -24 61 -8 73 9 7 89 52 177
99 179 95 229 130 500 342 104 82 191 149 192 148 0 -1 -16 -85 -38 -187z
m-2369 -271 c36 -31 153 -135 260 -229 107 -95 203 -180 213 -189 11 -11 37
-95 71 -227 29 -115 58 -219 64 -230 11 -21 99 -58 357 -150 205 -73 204 -55
3 -168 -95 -54 -196 -112 -225 -129 l-51 -30 4 -51 c2 -28 13 -220 24 -426 11
-206 23 -401 26 -434 5 -48 4 -57 -7 -50 -8 4 -126 89 -264 188 -137 99 -350
251 -471 338 l-221 159 -22 112 c-12 61 -47 229 -78 372 -30 143 -72 343 -94
445 -21 102 -47 226 -58 277 l-20 91 131 244 c71 134 135 249 140 255 10 13
37 -7 218 -168z m799 -644 c46 -34 196 -213 187 -223 -6 -5 -178 57 -203 73
-22 15 -53 96 -69 180 -8 43 -17 47 85 -30z m-5405 -485 c104 -91 262 -228
352 -305 89 -77 271 -234 403 -350 l242 -210 -6 -185 c-3 -102 -8 -195 -11
-207 -4 -22 -4 -23 163 -25 l166 -3 50 -148 c27 -82 47 -150 45 -152 -2 -2
-50 -8 -108 -14 -58 -6 -164 -18 -236 -27 l-132 -16 -288 137 c-606 288 -722
343 -821 390 l-101 47 -6 122 c-3 66 -8 256 -11 421 -3 165 -8 412 -11 550
l-7 250 64 -55 c35 -31 149 -130 253 -220z m3994 -607 c147 -141 273 -265 280
-275 11 -15 -7 -32 -180 -161 -106 -79 -272 -199 -368 -268 l-175 -125 -198
-33 c-109 -19 -200 -31 -202 -29 -4 4 57 264 95 409 10 35 13 37 82 55 57 15
75 24 88 47 10 15 82 165 161 332 79 168 145 305 147 305 2 0 124 -116 270
-257z m-1559 -8 c46 -25 490 -237 590 -282 45 -20 52 -27 49 -46 -19 -90 -342
-1247 -353 -1263 -8 -12 -72 -66 -142 -120 -70 -54 -238 -186 -373 -294 -303
-242 -418 -330 -432 -330 -11 0 -9 55 12 505 6 110 11 256 12 325 l2 125 -66
170 c-114 294 -238 632 -240 655 -3 18 25 39 172 132 205 130 713 446 719 447
1 1 24 -10 50 -24z m3656 -768 c94 -66 198 -140 233 -164 34 -24 62 -46 62
-49 0 -2 -98 -4 -218 -4 l-218 0 -205 146 c-112 80 -205 150 -207 154 -4 10 3
11 203 38 96 13 146 15 160 9 11 -6 97 -64 190 -130z"/>
<path d="M10127 2828 l-96 -73 122 -61 c112 -57 129 -69 212 -155 50 -52 106
-118 125 -146 19 -29 38 -53 41 -53 3 0 -4 53 -17 118 -12 64 -30 160 -39 213
l-17 96 -113 66 c-63 37 -116 67 -118 67 -2 0 -47 -33 -100 -72z"/>
<path d="M5530 6695 c0 -8 5 -15 10 -15 6 0 10 7 10 15 0 8 -4 15 -10 15 -5 0
-10 -7 -10 -15z"/>
<path d="M10692 4270 c-24 -28 -40 -50 -37 -50 4 0 26 14 50 31 31 22 41 36
38 50 -3 10 -6 19 -7 19 0 0 -20 -23 -44 -50z"/>
<path d="M1430 4247 c-34 -26 -440 -489 -457 -520 -7 -12 -17 -44 -22 -72 -20
-93 -91 -596 -91 -641 0 -70 57 -110 120 -84 35 14 462 469 497 528 21 35 28
79 58 358 43 388 43 388 9 419 -30 28 -88 33 -114 12z m16 -429 c-23 -213 -38
-313 -49 -328 -25 -35 -439 -470 -448 -470 -5 0 -6 6 -4 13 2 6 22 136 44 287
22 151 43 294 47 318 6 36 25 64 123 175 325 371 316 361 319 336 1 -13 -13
-162 -32 -331z m-273 -680 c-24 -24 -37 -21 -27 6 3 9 16 16 27 16 l21 0 -21
-22z"/>
<path d="M1468 3385 c-17 -23 -17 -24 1 -22 12 1 21 10 24 24 5 29 -3 29 -25
-2z"/>
<path d="M8249 2989 c0 -2 -2 -49 -5 -104 -2 -55 -6 -115 -9 -132 -2 -18 -2
-33 0 -33 3 0 19 9 37 20 47 29 115 27 162 -5 35 -23 49 -22 24 3 -6 6 -8 15
-5 19 10 9 123 -14 159 -33 50 -26 30 -7 -59 55 -49 33 -126 88 -173 122 -100
72 -130 93 -131 88z"/>
<path d="M8296 2714 c-55 -30 -771 -545 -798 -575 -20 -20 -28 -40 -28 -65 0
-49 30 -75 178 -158 67 -38 122 -73 122 -77 0 -20 -39 -24 -250 -29 -155 -4
-232 -9 -247 -18 -27 -15 -53 -62 -53 -93 0 -31 219 -848 236 -881 25 -48 45
-52 247 -56 169 -4 190 -2 217 15 16 10 223 211 459 446 463 460 452 447 436
535 -3 20 -29 91 -57 157 -54 129 -189 454 -269 650 -29 72 -59 129 -75 143
-30 26 -76 28 -118 6z m67 -76 c3 -7 35 -85 72 -173 227 -542 306 -745 296
-762 -8 -15 -198 -205 -761 -759 l-105 -104 -163 7 c-190 7 -164 -13 -212 165
-135 501 -182 690 -174 698 5 5 108 10 229 11 129 0 228 5 240 11 11 6 49 34
84 61 77 61 89 45 -142 177 -92 52 -167 100 -167 105 0 6 87 72 193 147 105
76 282 203 392 282 110 80 203 145 206 145 4 1 9 -5 12 -11z"/>
<path d="M1263 2398 c-124 -123 -235 -241 -248 -263 -26 -45 -44 -133 -135
-660 -33 -192 -71 -411 -85 -485 -38 -207 -41 -245 -21 -276 10 -14 33 -32 53
-40 48 -20 80 -8 195 73 51 36 248 170 438 297 190 127 364 248 387 269 51 47
242 326 254 373 13 46 1 72 -163 345 -74 123 -174 292 -223 374 -125 213 -126
215 -182 215 l-46 0 -224 -222z m504 -255 c127 -214 236 -398 242 -410 15 -30
3 -53 -116 -220 -62 -86 -111 -144 -141 -166 -86 -62 -873 -588 -889 -594 -20
-8 -24 -41 82 572 45 264 93 541 105 615 l23 135 226 228 c124 125 228 227
232 227 3 0 110 -174 236 -387z"/>
<path d="M3255 2565 c-50 -45 -50 -45 -16 -33 27 9 36 9 39 0 3 -9 10 -8 25 3
12 8 32 15 44 15 13 0 23 4 23 8 0 7 -55 53 -62 52 -2 -1 -25 -21 -53 -45z"/>
<path d="M3317 2499 c-16 -14 -104 -178 -217 -400 -151 -298 -190 -384 -190
-415 0 -44 8 -59 272 -474 295 -466 315 -495 348 -517 48 -33 87 -29 152 14
143 96 639 447 650 461 7 8 13 36 13 62 0 44 -7 55 -133 224 -132 176 -133
178 -115 199 10 12 73 81 140 154 133 145 147 172 116 226 -21 36 -44 48 -597
316 -187 90 -356 166 -376 168 -28 4 -42 0 -63 -18z m716 -382 c136 -66 247
-124 247 -128 0 -7 -155 -180 -278 -311 l-35 -37 18 -28 c10 -15 76 -105 147
-200 70 -95 128 -177 128 -182 0 -12 -91 -81 -255 -192 -60 -42 -164 -113
-230 -159 -200 -140 -187 -132 -201 -118 -6 7 -60 90 -120 183 -248 390 -389
614 -427 674 l-39 64 18 36 c11 20 96 190 191 378 l172 342 208 -100 c114 -55
319 -155 456 -222z"/>
<path d="M9218 2363 c7 -3 16 -2 19 1 4 3 -2 6 -13 5 -11 0 -14 -3 -6 -6z"/>
<path d="M4380 2060 c0 -5 5 -10 11 -10 5 0 7 5 4 10 -3 6 -8 10 -11 10 -2 0
-4 -4 -4 -10z"/>
<path d="M5327 2014 l-18 -24 26 12 c25 11 32 23 18 31 -5 3 -16 -6 -26 -19z"/>
<path d="M7623 1883 c9 -11 17 -25 17 -31 0 -7 11 -12 25 -12 36 0 31 13 -17
40 -39 21 -41 21 -25 3z"/>
<path d="M2140 1730 c0 -5 5 -10 11 -10 5 0 7 5 4 10 -3 6 -8 10 -11 10 -2 0
-4 -4 -4 -10z"/>
<path d="M6576 1308 c-25 -18 -134 -103 -242 -188 -348 -274 -408 -321 -476
-373 -85 -66 -107 -113 -78 -168 27 -49 30 -49 632 -49 545 0 564 1 596 20 39
24 56 62 47 108 -5 29 -222 460 -306 608 -46 81 -98 94 -173 42z m134 -160
c29 -57 65 -125 80 -153 61 -112 190 -363 190 -369 0 -3 -255 -6 -567 -6
l-568 1 35 27 c19 15 125 100 236 189 269 215 524 413 533 413 4 0 32 -46 61
-102z"/>
<path d="M1865 1280 c-3 -5 1 -10 9 -10 9 0 16 5 16 10 0 6 -4 10 -9 10 -6 0
-13 -4 -16 -10z"/>
<path d="M1742 1188 c-212 -135 -706 -475 -728 -501 -41 -49 -29 -113 26 -142
25 -13 106 -15 558 -15 361 0 539 4 561 11 34 12 61 53 61 93 0 41 -266 548
-306 584 -40 36 -79 29 -172 -30z m248 -278 c67 -129 129 -246 137 -258 8 -13
13 -26 10 -28 -2 -2 -244 -3 -538 -2 l-534 3 325 221 c446 303 463 315 471
306 4 -4 62 -113 129 -242z"/>
<path d="M4383 1214 c-8 -21 -1 -25 20 -9 15 11 16 13 2 19 -9 3 -18 -1 -22
-10z"/>
<path d="M4410 1168 c-30 -19 -134 -90 -230 -159 -96 -69 -226 -161 -289 -205
-154 -107 -171 -122 -177 -165 -5 -31 -1 -42 24 -70 l30 -34 513 -3 c374 -2
521 1 542 9 38 16 57 46 57 89 0 35 -17 66 -253 451 -57 92 -75 109 -124 116
-31 4 -48 -2 -93 -29z m108 -85 c30 -43 273 -434 279 -449 4 -12 -73 -14 -497
-14 -295 0 -499 4 -496 9 13 21 665 480 683 481 6 0 20 -12 31 -27z"/>
<path d="M5700 638 c-22 -19 -27 -28 -15 -23 11 4 27 8 35 9 8 2 16 13 18 24
4 28 4 28 -38 -10z"/>
<path d="M935 650 c-3 -5 -2 -10 4 -10 5 0 13 5 16 10 3 6 2 10 -4 10 -5 0
-13 -4 -16 -10z"/>
<path d="M3650 650 c-13 -8 -13 -10 2 -10 9 0 20 5 23 10 8 13 -5 13 -25 0z"/>
</g>
</svg>
